<mxfile host="app.diagrams.net" modified="2023-04-24T10:43:35.539Z" agent="Mozilla/5.0 (Macintosh; Intel Mac OS X 10_15_7) AppleWebKit/537.36 (KHTML, like Gecko) Chrome/111.0.0.0 Safari/537.36" etag="IyQML1lkzBWJ30qnR4hF" version="21.2.1" type="github">
  <diagram name="第 1 页" id="tjQDbWed0sShZBj-Isk7">
    <mxGraphModel dx="878" dy="473" grid="0" gridSize="10" guides="1" tooltips="1" connect="1" arrows="1" fold="1" page="1" pageScale="1" pageWidth="827" pageHeight="1169" math="0" shadow="0">
      <root>
        <mxCell id="0" />
        <mxCell id="1" parent="0" />
        <mxCell id="Y3sZGP2XZMapXoTi0svQ-1" value="opcode" style="rounded=0;whiteSpace=wrap;html=1;strokeWidth=2;fontSize=21;fillColor=#fff2cc;strokeColor=#d6b656;" vertex="1" parent="1">
          <mxGeometry x="136" y="180" width="120" height="60" as="geometry" />
        </mxCell>
        <mxCell id="Y3sZGP2XZMapXoTi0svQ-2" value="oparg" style="rounded=0;whiteSpace=wrap;html=1;strokeWidth=2;fontSize=21;fillColor=#d5e8d4;strokeColor=#82b366;" vertex="1" parent="1">
          <mxGeometry x="256" y="180" width="124" height="60" as="geometry" />
        </mxCell>
        <mxCell id="Y3sZGP2XZMapXoTi0svQ-3" value="124" style="rounded=0;whiteSpace=wrap;html=1;strokeWidth=2;fontSize=21;fillColor=#fff2cc;strokeColor=#d6b656;" vertex="1" parent="1">
          <mxGeometry x="63" y="299" width="90" height="36" as="geometry" />
        </mxCell>
        <mxCell id="Y3sZGP2XZMapXoTi0svQ-9" value="0" style="rounded=0;whiteSpace=wrap;html=1;strokeWidth=2;fontSize=21;fillColor=#d5e8d4;strokeColor=#82b366;" vertex="1" parent="1">
          <mxGeometry x="153" y="299" width="90" height="36" as="geometry" />
        </mxCell>
        <mxCell id="Y3sZGP2XZMapXoTi0svQ-10" value="124" style="rounded=0;whiteSpace=wrap;html=1;strokeWidth=2;fontSize=21;fillColor=#fff2cc;strokeColor=#d6b656;" vertex="1" parent="1">
          <mxGeometry x="243" y="299" width="90" height="36" as="geometry" />
        </mxCell>
        <mxCell id="Y3sZGP2XZMapXoTi0svQ-11" value="1" style="rounded=0;whiteSpace=wrap;html=1;strokeWidth=2;fontSize=21;fillColor=#d5e8d4;strokeColor=#82b366;" vertex="1" parent="1">
          <mxGeometry x="333" y="299" width="90" height="36" as="geometry" />
        </mxCell>
        <mxCell id="Y3sZGP2XZMapXoTi0svQ-12" value="23" style="rounded=0;whiteSpace=wrap;html=1;strokeWidth=2;fontSize=21;fillColor=#fff2cc;strokeColor=#d6b656;" vertex="1" parent="1">
          <mxGeometry x="423" y="299" width="90" height="36" as="geometry" />
        </mxCell>
        <mxCell id="Y3sZGP2XZMapXoTi0svQ-13" value="0" style="rounded=0;whiteSpace=wrap;html=1;strokeWidth=2;fontSize=21;fillColor=#d5e8d4;strokeColor=#82b366;" vertex="1" parent="1">
          <mxGeometry x="513" y="299" width="90" height="36" as="geometry" />
        </mxCell>
        <mxCell id="Y3sZGP2XZMapXoTi0svQ-14" value="83" style="rounded=0;whiteSpace=wrap;html=1;strokeWidth=2;fontSize=21;fillColor=#fff2cc;strokeColor=#d6b656;" vertex="1" parent="1">
          <mxGeometry x="603" y="299" width="90" height="36" as="geometry" />
        </mxCell>
        <mxCell id="Y3sZGP2XZMapXoTi0svQ-15" value="0" style="rounded=0;whiteSpace=wrap;html=1;strokeWidth=2;fontSize=21;fillColor=#d5e8d4;strokeColor=#82b366;" vertex="1" parent="1">
          <mxGeometry x="693" y="299" width="90" height="36" as="geometry" />
        </mxCell>
        <mxCell id="Y3sZGP2XZMapXoTi0svQ-16" value="&lt;meta charset=&quot;utf-8&quot; style=&quot;font-size: 14px;&quot;&gt;&lt;div class=&quot;mp-block-code-container&quot; style=&quot;font-size: 14px;&quot;&gt;&lt;pre style=&quot;overflow: hidden; font-size: 14px;&quot; class=&quot;mp-block-code-wrapper language-python&quot; data-indent=&quot;0&quot; data-autowrap=&quot;true&quot; data-lang=&quot;python&quot; data-title=&quot;&quot; spellcheck=&quot;false&quot;&gt;&lt;div style=&quot;overflow: auto; font-size: 14px;&quot; class=&quot;mp-block-code-content mp-block-code-content-auto-wrap&quot;&gt;&lt;div data-text-content=&quot;def add(a, b):&quot; class=&quot;mp-block-code-line&quot; style=&quot;font-size: 14px;&quot;&gt;&lt;span class=&quot;mp-block-code-line-content&quot; style=&quot;font-size: 14px;&quot;&gt;def add(a, b):&lt;/span&gt;&lt;/div&gt;&lt;div data-text-content=&quot;return a + b&quot; class=&quot;mp-block-code-line&quot; style=&quot;font-size: 14px;&quot;&gt;&lt;span class=&quot;mp-block-code-line-content&quot; style=&quot;font-size: 14px;&quot;&gt;    return a + b&lt;/span&gt;&lt;/div&gt;&lt;/div&gt;&lt;/pre&gt;&lt;/div&gt;&lt;span class=&quot;mp-morpho-clipboard-doc-data&quot; data-morpho-doc-data=&quot;{&amp;quot;token&amp;quot;:&amp;quot;eyJhbGciOiJkaXIiLCJlbmMiOiJBMjU2R0NNIiwiYXBwSWQiOjEsInVpZCI6IlJmQnhMU25WYWMiLCJkb2NJZCI6IjZualM5UHlEN0pNSWIxIn0..HtIISM3Xu73jL1M5.cAUEIq9rWZNWHk-9vG3Ll034DTMDKHD9aAFG1nXJhQY_-1K-3qudW-VGhdsC_QPGJ6adHDOAmm4RJgJBeiJlLe7ivg77IEm0PreDHelebE0Su2v_QivwWForbva7rJNezUGUJu_WFTd44-WtMQYQ3chcsaRKdZcUmPtzsJgTV4RLSMeLBGtx2GO5p9ahzTNR1wCFHe9v74aKPHv--OMsMgBqBg.4p_wrb0RmknmywBqqOuD8g&amp;quot;}&quot; style=&quot;font-size: 14px;&quot;&gt;&lt;/span&gt;" style="text;whiteSpace=wrap;html=1;fontSize=14;" vertex="1" parent="1">
          <mxGeometry x="326.9999755859375" y="236.00001220703126" width="143" height="75" as="geometry" />
        </mxCell>
        <mxCell id="Y3sZGP2XZMapXoTi0svQ-17" value="124" style="rounded=0;whiteSpace=wrap;html=1;strokeWidth=2;fontSize=21;fillColor=#fff2cc;strokeColor=#d6b656;" vertex="1" parent="1">
          <mxGeometry x="63" y="401" width="90" height="36" as="geometry" />
        </mxCell>
        <mxCell id="Y3sZGP2XZMapXoTi0svQ-18" value="0" style="rounded=0;whiteSpace=wrap;html=1;strokeWidth=2;fontSize=21;fillColor=#d5e8d4;strokeColor=#82b366;" vertex="1" parent="1">
          <mxGeometry x="153" y="401" width="90" height="36" as="geometry" />
        </mxCell>
        <mxCell id="Y3sZGP2XZMapXoTi0svQ-19" value="LOAD_FAST 0&amp;nbsp; &amp;nbsp; &amp;nbsp; &amp;nbsp; &amp;nbsp; &amp;nbsp; 向栈中压入第0个局部变量（a)" style="text;html=1;strokeColor=none;fillColor=none;align=center;verticalAlign=middle;whiteSpace=wrap;rounded=0;fontSize=13;" vertex="1" parent="1">
          <mxGeometry x="270" y="407" width="311" height="30" as="geometry" />
        </mxCell>
        <mxCell id="Y3sZGP2XZMapXoTi0svQ-20" value="124" style="rounded=0;whiteSpace=wrap;html=1;strokeWidth=2;fontSize=21;fillColor=#fff2cc;strokeColor=#d6b656;" vertex="1" parent="1">
          <mxGeometry x="63" y="469" width="90" height="36" as="geometry" />
        </mxCell>
        <mxCell id="Y3sZGP2XZMapXoTi0svQ-21" value="1" style="rounded=0;whiteSpace=wrap;html=1;strokeWidth=2;fontSize=21;fillColor=#d5e8d4;strokeColor=#82b366;" vertex="1" parent="1">
          <mxGeometry x="153" y="469" width="90" height="36" as="geometry" />
        </mxCell>
        <mxCell id="Y3sZGP2XZMapXoTi0svQ-23" value="23" style="rounded=0;whiteSpace=wrap;html=1;strokeWidth=2;fontSize=21;fillColor=#fff2cc;strokeColor=#d6b656;" vertex="1" parent="1">
          <mxGeometry x="63" y="544" width="90" height="36" as="geometry" />
        </mxCell>
        <mxCell id="Y3sZGP2XZMapXoTi0svQ-24" value="0" style="rounded=0;whiteSpace=wrap;html=1;strokeWidth=2;fontSize=21;fillColor=#d5e8d4;strokeColor=#82b366;" vertex="1" parent="1">
          <mxGeometry x="153" y="544" width="90" height="36" as="geometry" />
        </mxCell>
        <mxCell id="Y3sZGP2XZMapXoTi0svQ-25" value="BINARY_ADD&amp;nbsp; &amp;nbsp; &amp;nbsp; &amp;nbsp; &amp;nbsp;执行加法，操作数为栈顶的2个元素(TOS1, TOS)" style="text;html=1;strokeColor=none;fillColor=none;align=center;verticalAlign=middle;whiteSpace=wrap;rounded=0;fontSize=13;" vertex="1" parent="1">
          <mxGeometry x="267" y="545" width="413" height="34" as="geometry" />
        </mxCell>
        <mxCell id="Y3sZGP2XZMapXoTi0svQ-26" value="83" style="rounded=0;whiteSpace=wrap;html=1;strokeWidth=2;fontSize=21;fillColor=#fff2cc;strokeColor=#d6b656;" vertex="1" parent="1">
          <mxGeometry x="63" y="614" width="90" height="36" as="geometry" />
        </mxCell>
        <mxCell id="Y3sZGP2XZMapXoTi0svQ-27" value="0" style="rounded=0;whiteSpace=wrap;html=1;strokeWidth=2;fontSize=21;fillColor=#d5e8d4;strokeColor=#82b366;" vertex="1" parent="1">
          <mxGeometry x="153" y="614" width="90" height="36" as="geometry" />
        </mxCell>
        <mxCell id="Y3sZGP2XZMapXoTi0svQ-28" value="RETURN_VALUE&amp;nbsp; &amp;nbsp; &amp;nbsp; &amp;nbsp; &amp;nbsp; &amp;nbsp; &amp;nbsp; &amp;nbsp;返回栈顶的元素（TOS）" style="text;html=1;strokeColor=none;fillColor=none;align=center;verticalAlign=middle;whiteSpace=wrap;rounded=0;fontSize=13;" vertex="1" parent="1">
          <mxGeometry x="264" y="620" width="332" height="30" as="geometry" />
        </mxCell>
        <mxCell id="Y3sZGP2XZMapXoTi0svQ-29" value="LOAD_FAST 1&amp;nbsp; &amp;nbsp; &amp;nbsp; &amp;nbsp; &amp;nbsp; &amp;nbsp;向栈中压入第0个局部变量 (b)" style="text;html=1;strokeColor=none;fillColor=none;align=center;verticalAlign=middle;whiteSpace=wrap;rounded=0;fontSize=13;" vertex="1" parent="1">
          <mxGeometry x="272" y="475" width="307" height="30" as="geometry" />
        </mxCell>
      </root>
    </mxGraphModel>
  </diagram>
</mxfile>
